<mxfile host="drawio-plugin" modified="2023-06-05T03:47:14.504Z" agent="5.0 (Macintosh; Intel Mac OS X 10_15_7) AppleWebKit/537.36 (KHTML, like Gecko) Chrome/98.0.4758.102 Safari/537.36" etag="cvorku5oOGMf7DdeITI_" version="20.5.3" type="embed"><diagram name="Page-1" id="KnyejOrNGqKK7MUiO_D-"><mxGraphModel dx="1616" dy="1904" grid="0" gridSize="10" guides="0" tooltips="1" connect="0" arrows="1" fold="1" page="0" pageScale="1" pageWidth="827" pageHeight="1169" math="0" shadow="0"><root><mxCell id="0"/><mxCell id="1" parent="0"/><mxCell id="DVtwXkV7z90da2ha-nNt-15" value="root" style="ellipse;aspect=fixed;strokeWidth=2;whiteSpace=wrap;fillColor=#dae8fc;strokeColor=#6c8ebf;fontSize=15;" parent="1" vertex="1"><mxGeometry x="191" y="380" width="63" height="63" as="geometry"/></mxCell><mxCell id="DVtwXkV7z90da2ha-nNt-16" value="'a'" style="ellipse;aspect=fixed;strokeWidth=2;whiteSpace=wrap;fillColor=#dae8fc;strokeColor=#6c8ebf;fontSize=15;" parent="1" vertex="1"><mxGeometry x="77" y="494" width="64" height="64" as="geometry"/></mxCell><mxCell id="DVtwXkV7z90da2ha-nNt-17" value="'5'" style="ellipse;aspect=fixed;strokeWidth=2;whiteSpace=wrap;fillColor=#dae8fc;strokeColor=#6c8ebf;fontSize=15;" parent="1" vertex="1"><mxGeometry x="305" y="493" width="64" height="64" as="geometry"/></mxCell><mxCell id="DVtwXkV7z90da2ha-nNt-18" value="'b'&#10;90" style="ellipse;aspect=fixed;strokeWidth=2;whiteSpace=wrap;fillColor=#dae8fc;strokeColor=#6c8ebf;fontSize=15;" parent="1" vertex="1"><mxGeometry x="20" y="608" width="65" height="65" as="geometry"/></mxCell><mxCell id="DVtwXkV7z90da2ha-nNt-19" value="'m'&#10;'abc'" style="ellipse;aspect=fixed;strokeWidth=2;whiteSpace=wrap;fillColor=#dae8fc;strokeColor=#6c8ebf;fontSize=15;" parent="1" vertex="1"><mxGeometry x="135" y="609" width="63" height="63" as="geometry"/></mxCell><mxCell id="DVtwXkV7z90da2ha-nNt-20" value="'d'&#10;0" style="ellipse;aspect=fixed;strokeWidth=2;whiteSpace=wrap;fillColor=#dae8fc;strokeColor=#6c8ebf;fontSize=15;" parent="1" vertex="1"><mxGeometry x="248" y="609" width="63" height="63" as="geometry"/></mxCell><mxCell id="DVtwXkV7z90da2ha-nNt-21" value="'c'" style="ellipse;aspect=fixed;strokeWidth=2;whiteSpace=wrap;fillColor=#dae8fc;strokeColor=#6c8ebf;fontSize=15;" parent="1" vertex="1"><mxGeometry x="361" y="608" width="66" height="66" as="geometry"/></mxCell><mxCell id="DVtwXkV7z90da2ha-nNt-22" value="" style="curved=1;startArrow=none;endArrow=classic;exitX=0.007223462301587302;exitY=0.7530054499151936;entryX=0.504547119140625;entryY=-0.0062255859375;rounded=0;shadow=0;endFill=1;fillColor=#dae8fc;strokeColor=#6c8ebf;fontSize=15;" parent="1" source="DVtwXkV7z90da2ha-nNt-15" target="DVtwXkV7z90da2ha-nNt-16" edge="1"><mxGeometry relative="1" as="geometry"><Array as="points"><mxPoint x="109" y="468"/></Array></mxGeometry></mxCell><mxCell id="DVtwXkV7z90da2ha-nNt-23" value="" style="curved=1;startArrow=none;endArrow=classic;exitX=1.0126798115079365;exitY=0.753465763586548;entryX=0.49615478515625;entryY=0.00537109375;rounded=0;endFill=1;fillColor=#dae8fc;strokeColor=#6c8ebf;fontSize=15;" parent="1" source="DVtwXkV7z90da2ha-nNt-15" target="DVtwXkV7z90da2ha-nNt-17" edge="1"><mxGeometry relative="1" as="geometry"><Array as="points"><mxPoint x="337" y="468"/></Array></mxGeometry></mxCell><mxCell id="DVtwXkV7z90da2ha-nNt-24" value="" style="curved=1;startArrow=none;endArrow=classic;exitX=0.007420424800017589;exitY=0.9913330078125;entryX=0.4969350961538462;entryY=0.003185096153846154;rounded=0;endFill=1;fillColor=#dae8fc;strokeColor=#6c8ebf;fontSize=15;" parent="1" source="DVtwXkV7z90da2ha-nNt-16" target="DVtwXkV7z90da2ha-nNt-18" edge="1"><mxGeometry relative="1" as="geometry"><Array as="points"><mxPoint x="52" y="583"/></Array></mxGeometry></mxCell><mxCell id="DVtwXkV7z90da2ha-nNt-25" value="" style="curved=1;startArrow=none;endArrow=classic;exitX=1.0016738134812324;exitY=0.9913330078125;entryX=0.4965277777777778;entryY=-0.002728174603174603;rounded=0;endFill=1;fillColor=#dae8fc;strokeColor=#6c8ebf;fontSize=15;" parent="1" source="DVtwXkV7z90da2ha-nNt-16" target="DVtwXkV7z90da2ha-nNt-19" edge="1"><mxGeometry relative="1" as="geometry"><Array as="points"><mxPoint x="166" y="583"/></Array></mxGeometry></mxCell><mxCell id="DVtwXkV7z90da2ha-nNt-26" value="" style="curved=1;startArrow=none;endArrow=classic;exitX=-0.00665283203125;exitY=1.0108146393941428;entryX=0.5008680555555556;entryY=-0.0013640873015873015;rounded=0;endFill=1;fillColor=#dae8fc;strokeColor=#6c8ebf;fontSize=15;" parent="1" source="DVtwXkV7z90da2ha-nNt-17" target="DVtwXkV7z90da2ha-nNt-20" edge="1"><mxGeometry relative="1" as="geometry"><Array as="points"><mxPoint x="280" y="583"/></Array></mxGeometry></mxCell><mxCell id="DVtwXkV7z90da2ha-nNt-27" value="" style="curved=1;startArrow=none;endArrow=classic;exitX=0.99896240234375;exitY=1.0108146393941428;entryX=0.4992897727272727;entryY=-0.004498106060606061;rounded=0;endFill=1;fillColor=#dae8fc;strokeColor=#6c8ebf;fontSize=15;" parent="1" source="DVtwXkV7z90da2ha-nNt-17" target="DVtwXkV7z90da2ha-nNt-21" edge="1"><mxGeometry relative="1" as="geometry"><Array as="points"><mxPoint x="394" y="583"/></Array></mxGeometry></mxCell><mxCell id="DVtwXkV7z90da2ha-nNt-51" value="'d'&#10;1" style="ellipse;aspect=fixed;strokeWidth=2;whiteSpace=wrap;fillColor=#fff2cc;strokeColor=#d6b656;fontSize=15;" parent="1" vertex="1"><mxGeometry x="191" y="724" width="63" height="63" as="geometry"/></mxCell><mxCell id="DVtwXkV7z90da2ha-nNt-52" value="'k'&#10;7" style="ellipse;aspect=fixed;strokeWidth=2;whiteSpace=wrap;fillColor=#dae8fc;strokeColor=#6c8ebf;fontSize=15;" parent="1" vertex="1"><mxGeometry x="304" y="723" width="66" height="66" as="geometry"/></mxCell><mxCell id="DVtwXkV7z90da2ha-nNt-53" value="" style="curved=1;startArrow=none;endArrow=classic;exitX=-0.00665283203125;exitY=1.0108146393941428;entryX=0.5008680555555556;entryY=-0.0013640873015873015;rounded=0;endFill=1;fillColor=#dae8fc;strokeColor=#6c8ebf;fontSize=15;" parent="1" target="DVtwXkV7z90da2ha-nNt-51" edge="1"><mxGeometry relative="1" as="geometry"><Array as="points"><mxPoint x="223" y="698"/></Array><mxPoint x="257" y="663" as="sourcePoint"/></mxGeometry></mxCell><mxCell id="DVtwXkV7z90da2ha-nNt-54" value="" style="curved=1;startArrow=none;endArrow=classic;exitX=0.99896240234375;exitY=1.0108146393941428;entryX=0.4992897727272727;entryY=-0.004498106060606061;rounded=0;endFill=1;fillColor=#dae8fc;strokeColor=#6c8ebf;fontSize=15;" parent="1" target="DVtwXkV7z90da2ha-nNt-52" edge="1"><mxGeometry relative="1" as="geometry"><Array as="points"><mxPoint x="337" y="698"/></Array><mxPoint x="302" y="663" as="sourcePoint"/></mxGeometry></mxCell><mxCell id="DVtwXkV7z90da2ha-nNt-57" value="'s'&#10;'777'" style="ellipse;aspect=fixed;strokeWidth=2;whiteSpace=wrap;fillColor=#dae8fc;strokeColor=#6c8ebf;fontSize=15;" parent="1" vertex="1"><mxGeometry x="245" y="840" width="66" height="66" as="geometry"/></mxCell><mxCell id="DVtwXkV7z90da2ha-nNt-58" value="" style="curved=1;startArrow=none;endArrow=classic;exitX=0.99896240234375;exitY=1.0108146393941428;entryX=0.4992897727272727;entryY=-0.004498106060606061;rounded=0;endFill=1;fillColor=#dae8fc;strokeColor=#6c8ebf;fontSize=15;" parent="1" target="DVtwXkV7z90da2ha-nNt-57" edge="1"><mxGeometry relative="1" as="geometry"><Array as="points"><mxPoint x="278" y="815"/></Array><mxPoint x="243" y="780" as="sourcePoint"/></mxGeometry></mxCell><mxCell id="DVtwXkV7z90da2ha-nNt-98" value="root" style="ellipse;aspect=fixed;strokeWidth=2;whiteSpace=wrap;fillColor=#dae8fc;strokeColor=#6c8ebf;fontSize=15;" parent="1" vertex="1"><mxGeometry x="571" y="-607" width="63" height="63" as="geometry"/></mxCell><mxCell id="DVtwXkV7z90da2ha-nNt-99" value="'a'" style="ellipse;aspect=fixed;strokeWidth=2;whiteSpace=wrap;fillColor=#dae8fc;strokeColor=#6c8ebf;fontSize=15;" parent="1" vertex="1"><mxGeometry x="457" y="-493" width="64" height="64" as="geometry"/></mxCell><mxCell id="DVtwXkV7z90da2ha-nNt-100" value="'5'" style="ellipse;aspect=fixed;strokeWidth=2;whiteSpace=wrap;fillColor=#dae8fc;strokeColor=#6c8ebf;fontSize=15;" parent="1" vertex="1"><mxGeometry x="685" y="-494" width="64" height="64" as="geometry"/></mxCell><mxCell id="DVtwXkV7z90da2ha-nNt-101" value="'b'&#10;90" style="ellipse;aspect=fixed;strokeWidth=2;whiteSpace=wrap;fillColor=#dae8fc;strokeColor=#6c8ebf;fontSize=15;" parent="1" vertex="1"><mxGeometry x="400" y="-379" width="65" height="65" as="geometry"/></mxCell><mxCell id="DVtwXkV7z90da2ha-nNt-102" value="'mk'&#10;'abc'" style="ellipse;aspect=fixed;strokeWidth=2;whiteSpace=wrap;fillColor=#dae8fc;strokeColor=#6c8ebf;fontSize=15;" parent="1" vertex="1"><mxGeometry x="515" y="-378" width="63" height="63" as="geometry"/></mxCell><mxCell id="DVtwXkV7z90da2ha-nNt-103" value="'d'&#10;0" style="ellipse;aspect=fixed;strokeWidth=2;whiteSpace=wrap;fillColor=#dae8fc;strokeColor=#6c8ebf;fontSize=15;" parent="1" vertex="1"><mxGeometry x="628" y="-378" width="63" height="63" as="geometry"/></mxCell><mxCell id="DVtwXkV7z90da2ha-nNt-104" value="'c'" style="ellipse;aspect=fixed;strokeWidth=2;whiteSpace=wrap;fillColor=#dae8fc;strokeColor=#6c8ebf;fontSize=15;" parent="1" vertex="1"><mxGeometry x="741" y="-379" width="66" height="66" as="geometry"/></mxCell><mxCell id="DVtwXkV7z90da2ha-nNt-105" value="" style="curved=1;startArrow=none;endArrow=classic;exitX=0.007223462301587302;exitY=0.7530054499151936;entryX=0.504547119140625;entryY=-0.0062255859375;rounded=0;shadow=0;endFill=1;fillColor=#dae8fc;strokeColor=#6c8ebf;fontSize=15;" parent="1" source="DVtwXkV7z90da2ha-nNt-98" target="DVtwXkV7z90da2ha-nNt-99" edge="1"><mxGeometry relative="1" as="geometry"><Array as="points"><mxPoint x="489" y="-519"/></Array></mxGeometry></mxCell><mxCell id="DVtwXkV7z90da2ha-nNt-106" value="" style="curved=1;startArrow=none;endArrow=classic;exitX=1.0126798115079365;exitY=0.753465763586548;entryX=0.49615478515625;entryY=0.00537109375;rounded=0;endFill=1;fillColor=#dae8fc;strokeColor=#6c8ebf;fontSize=15;" parent="1" source="DVtwXkV7z90da2ha-nNt-98" target="DVtwXkV7z90da2ha-nNt-100" edge="1"><mxGeometry relative="1" as="geometry"><Array as="points"><mxPoint x="717" y="-519"/></Array></mxGeometry></mxCell><mxCell id="DVtwXkV7z90da2ha-nNt-107" value="" style="curved=1;startArrow=none;endArrow=classic;exitX=0.007420424800017589;exitY=0.9913330078125;entryX=0.4969350961538462;entryY=0.003185096153846154;rounded=0;endFill=1;fillColor=#dae8fc;strokeColor=#6c8ebf;fontSize=15;" parent="1" source="DVtwXkV7z90da2ha-nNt-99" target="DVtwXkV7z90da2ha-nNt-101" edge="1"><mxGeometry relative="1" as="geometry"><Array as="points"><mxPoint x="432" y="-404"/></Array></mxGeometry></mxCell><mxCell id="DVtwXkV7z90da2ha-nNt-108" value="" style="curved=1;startArrow=none;endArrow=classic;exitX=1.0016738134812324;exitY=0.9913330078125;entryX=0.4965277777777778;entryY=-0.002728174603174603;rounded=0;endFill=1;fillColor=#dae8fc;strokeColor=#6c8ebf;fontSize=15;" parent="1" source="DVtwXkV7z90da2ha-nNt-99" target="DVtwXkV7z90da2ha-nNt-102" edge="1"><mxGeometry relative="1" as="geometry"><Array as="points"><mxPoint x="546" y="-404"/></Array></mxGeometry></mxCell><mxCell id="DVtwXkV7z90da2ha-nNt-109" value="" style="curved=1;startArrow=none;endArrow=classic;exitX=-0.00665283203125;exitY=1.0108146393941428;entryX=0.5008680555555556;entryY=-0.0013640873015873015;rounded=0;endFill=1;fillColor=#dae8fc;strokeColor=#6c8ebf;fontSize=15;" parent="1" source="DVtwXkV7z90da2ha-nNt-100" target="DVtwXkV7z90da2ha-nNt-103" edge="1"><mxGeometry relative="1" as="geometry"><Array as="points"><mxPoint x="660" y="-404"/></Array></mxGeometry></mxCell><mxCell id="DVtwXkV7z90da2ha-nNt-110" value="" style="curved=1;startArrow=none;endArrow=classic;exitX=0.99896240234375;exitY=1.0108146393941428;entryX=0.4992897727272727;entryY=-0.004498106060606061;rounded=0;endFill=1;fillColor=#dae8fc;strokeColor=#6c8ebf;fontSize=15;" parent="1" source="DVtwXkV7z90da2ha-nNt-100" target="DVtwXkV7z90da2ha-nNt-104" edge="1"><mxGeometry relative="1" as="geometry"><Array as="points"><mxPoint x="774" y="-404"/></Array></mxGeometry></mxCell><mxCell id="DVtwXkV7z90da2ha-nNt-111" value="'d'&#10;1" style="ellipse;aspect=fixed;strokeWidth=2;whiteSpace=wrap;fillColor=#fff2cc;strokeColor=#d6b656;fontSize=15;" parent="1" vertex="1"><mxGeometry x="571" y="-263" width="63" height="63" as="geometry"/></mxCell><mxCell id="DVtwXkV7z90da2ha-nNt-112" value="'k'&#10;7" style="ellipse;aspect=fixed;strokeWidth=2;whiteSpace=wrap;fillColor=#dae8fc;strokeColor=#6c8ebf;fontSize=15;" parent="1" vertex="1"><mxGeometry x="684" y="-264" width="66" height="66" as="geometry"/></mxCell><mxCell id="DVtwXkV7z90da2ha-nNt-113" value="" style="curved=1;startArrow=none;endArrow=classic;exitX=-0.00665283203125;exitY=1.0108146393941428;entryX=0.5008680555555556;entryY=-0.0013640873015873015;rounded=0;endFill=1;fillColor=#dae8fc;strokeColor=#6c8ebf;fontSize=15;" parent="1" target="DVtwXkV7z90da2ha-nNt-111" edge="1"><mxGeometry relative="1" as="geometry"><Array as="points"><mxPoint x="603" y="-289"/></Array><mxPoint x="637" y="-324" as="sourcePoint"/></mxGeometry></mxCell><mxCell id="DVtwXkV7z90da2ha-nNt-114" value="" style="curved=1;startArrow=none;endArrow=classic;exitX=0.99896240234375;exitY=1.0108146393941428;entryX=0.4992897727272727;entryY=-0.004498106060606061;rounded=0;endFill=1;fillColor=#dae8fc;strokeColor=#6c8ebf;fontSize=15;" parent="1" target="DVtwXkV7z90da2ha-nNt-112" edge="1"><mxGeometry relative="1" as="geometry"><Array as="points"><mxPoint x="717" y="-289"/></Array><mxPoint x="682" y="-324" as="sourcePoint"/></mxGeometry></mxCell><mxCell id="DVtwXkV7z90da2ha-nNt-115" value="'s'&#10;'777'" style="ellipse;aspect=fixed;strokeWidth=2;whiteSpace=wrap;fillColor=#dae8fc;strokeColor=#6c8ebf;fontSize=15;" parent="1" vertex="1"><mxGeometry x="625" y="-147" width="66" height="66" as="geometry"/></mxCell><mxCell id="DVtwXkV7z90da2ha-nNt-116" value="" style="curved=1;startArrow=none;endArrow=classic;exitX=0.99896240234375;exitY=1.0108146393941428;entryX=0.4992897727272727;entryY=-0.004498106060606061;rounded=0;endFill=1;fillColor=#dae8fc;strokeColor=#6c8ebf;fontSize=15;" parent="1" target="DVtwXkV7z90da2ha-nNt-115" edge="1"><mxGeometry relative="1" as="geometry"><Array as="points"><mxPoint x="658" y="-172"/></Array><mxPoint x="623" y="-207" as="sourcePoint"/></mxGeometry></mxCell><mxCell id="DVtwXkV7z90da2ha-nNt-117" value="root" style="ellipse;aspect=fixed;strokeWidth=2;whiteSpace=wrap;fillColor=#f8cecc;strokeColor=#b85450;fontSize=15;" parent="1" vertex="1"><mxGeometry x="651" y="360" width="63" height="63" as="geometry"/></mxCell><mxCell id="DVtwXkV7z90da2ha-nNt-119" value="'5'" style="ellipse;aspect=fixed;strokeWidth=2;whiteSpace=wrap;fillColor=#f8cecc;strokeColor=#b85450;fontSize=15;" parent="1" vertex="1"><mxGeometry x="765" y="491" width="64" height="64" as="geometry"/></mxCell><mxCell id="DVtwXkV7z90da2ha-nNt-122" value="'d'&#10;0" style="ellipse;aspect=fixed;strokeWidth=2;whiteSpace=wrap;fillColor=#f8cecc;strokeColor=#b85450;fontSize=15;" parent="1" vertex="1"><mxGeometry x="708" y="607" width="63" height="63" as="geometry"/></mxCell><mxCell id="DVtwXkV7z90da2ha-nNt-124" value="" style="curved=1;startArrow=none;endArrow=classic;exitX=0.007223462301587302;exitY=0.7530054499151936;entryX=1;entryY=0;rounded=0;shadow=0;endFill=1;entryDx=0;entryDy=0;fillColor=#dae8fc;strokeColor=#6c8ebf;fontSize=15;" parent="1" source="DVtwXkV7z90da2ha-nNt-117" target="DVtwXkV7z90da2ha-nNt-16" edge="1"><mxGeometry relative="1" as="geometry"><Array as="points"><mxPoint x="569" y="466"/><mxPoint x="420" y="440"/></Array></mxGeometry></mxCell><mxCell id="DVtwXkV7z90da2ha-nNt-125" value="" style="curved=1;startArrow=none;endArrow=classic;exitX=1.0126798115079365;exitY=0.753465763586548;entryX=0.49615478515625;entryY=0.00537109375;rounded=0;endFill=1;fillColor=#dae8fc;strokeColor=#6c8ebf;fontSize=15;" parent="1" source="DVtwXkV7z90da2ha-nNt-117" target="DVtwXkV7z90da2ha-nNt-119" edge="1"><mxGeometry relative="1" as="geometry"><Array as="points"><mxPoint x="797" y="466"/></Array></mxGeometry></mxCell><mxCell id="DVtwXkV7z90da2ha-nNt-128" value="" style="curved=1;startArrow=none;endArrow=classic;exitX=-0.00665283203125;exitY=1.0108146393941428;entryX=0.5008680555555556;entryY=-0.0013640873015873015;rounded=0;endFill=1;fillColor=#dae8fc;strokeColor=#6c8ebf;fontSize=15;" parent="1" source="DVtwXkV7z90da2ha-nNt-119" target="DVtwXkV7z90da2ha-nNt-122" edge="1"><mxGeometry relative="1" as="geometry"><Array as="points"><mxPoint x="740" y="581"/></Array></mxGeometry></mxCell><mxCell id="DVtwXkV7z90da2ha-nNt-129" value="" style="curved=1;startArrow=none;endArrow=classic;exitX=0.99896240234375;exitY=1.0108146393941428;entryX=1;entryY=0.5;rounded=0;endFill=1;entryDx=0;entryDy=0;fillColor=#dae8fc;strokeColor=#6c8ebf;fontSize=15;" parent="1" source="DVtwXkV7z90da2ha-nNt-119" target="DVtwXkV7z90da2ha-nNt-21" edge="1"><mxGeometry relative="1" as="geometry"><Array as="points"><mxPoint x="854" y="581"/></Array></mxGeometry></mxCell><mxCell id="DVtwXkV7z90da2ha-nNt-130" value="'d'&#10;objectA" style="ellipse;aspect=fixed;strokeWidth=2;whiteSpace=wrap;fillColor=#f8cecc;strokeColor=#b85450;fontSize=15;" parent="1" vertex="1"><mxGeometry x="651" y="722" width="63" height="63" as="geometry"/></mxCell><mxCell id="DVtwXkV7z90da2ha-nNt-132" value="" style="curved=1;startArrow=none;endArrow=classic;exitX=-0.00665283203125;exitY=1.0108146393941428;entryX=0.5008680555555556;entryY=-0.0013640873015873015;rounded=0;endFill=1;fillColor=#dae8fc;strokeColor=#6c8ebf;fontSize=15;" parent="1" target="DVtwXkV7z90da2ha-nNt-130" edge="1"><mxGeometry relative="1" as="geometry"><Array as="points"><mxPoint x="683" y="696"/></Array><mxPoint x="717" y="661" as="sourcePoint"/></mxGeometry></mxCell><mxCell id="DVtwXkV7z90da2ha-nNt-133" value="" style="curved=1;startArrow=none;endArrow=classic;exitX=0.99896240234375;exitY=1.0108146393941428;entryX=1;entryY=0.5;rounded=0;endFill=1;entryDx=0;entryDy=0;fillColor=#dae8fc;strokeColor=#6c8ebf;fontSize=15;" parent="1" target="DVtwXkV7z90da2ha-nNt-52" edge="1"><mxGeometry relative="1" as="geometry"><Array as="points"><mxPoint x="797" y="696"/></Array><mxPoint x="762" y="661" as="sourcePoint"/><mxPoint x="797" y="720.9999999999995" as="targetPoint"/></mxGeometry></mxCell><mxCell id="DVtwXkV7z90da2ha-nNt-135" value="" style="curved=1;startArrow=none;endArrow=classic;exitX=0;exitY=1;entryX=1;entryY=0.5;rounded=0;endFill=1;entryDx=0;entryDy=0;exitDx=0;exitDy=0;fillColor=#dae8fc;strokeColor=#6c8ebf;fontSize=15;" parent="1" source="DVtwXkV7z90da2ha-nNt-130" target="DVtwXkV7z90da2ha-nNt-57" edge="1"><mxGeometry relative="1" as="geometry"><Array as="points"><mxPoint x="650" y="813"/></Array><mxPoint x="703" y="778" as="sourcePoint"/></mxGeometry></mxCell><mxCell id="2" value="root" style="ellipse;aspect=fixed;strokeWidth=2;whiteSpace=wrap;fillColor=#ffcd28;strokeColor=#d79b00;fontSize=15;gradientColor=#ffa500;" parent="1" vertex="1"><mxGeometry x="1146" y="355" width="63" height="63" as="geometry"/></mxCell><mxCell id="3" value="'a'" style="ellipse;aspect=fixed;strokeWidth=2;whiteSpace=wrap;fillColor=#ffcd28;strokeColor=#d79b00;fontSize=15;gradientColor=#ffa500;" parent="1" vertex="1"><mxGeometry x="1032" y="469" width="64" height="64" as="geometry"/></mxCell><mxCell id="5" value="'b'&#10;90" style="ellipse;aspect=fixed;strokeWidth=2;whiteSpace=wrap;fillColor=#ffcd28;strokeColor=#d79b00;fontSize=15;gradientColor=#ffa500;" parent="1" vertex="1"><mxGeometry x="975" y="583" width="65" height="65" as="geometry"/></mxCell><mxCell id="9" value="" style="curved=1;startArrow=none;endArrow=classic;exitX=0.007223462301587302;exitY=0.7530054499151936;entryX=0.504547119140625;entryY=-0.0062255859375;rounded=0;shadow=0;endFill=1;fillColor=#dae8fc;strokeColor=#6c8ebf;fontSize=15;" parent="1" source="2" target="3" edge="1"><mxGeometry relative="1" as="geometry"><Array as="points"><mxPoint x="1064" y="443"/></Array></mxGeometry></mxCell><mxCell id="10" value="" style="curved=1;startArrow=none;endArrow=classic;exitX=1.0126798115079365;exitY=0.753465763586548;entryX=1.028;entryY=0.419;rounded=0;endFill=1;fillColor=#dae8fc;strokeColor=#6c8ebf;fontSize=15;entryDx=0;entryDy=0;entryPerimeter=0;" parent="1" source="2" target="DVtwXkV7z90da2ha-nNt-119" edge="1"><mxGeometry relative="1" as="geometry"><Array as="points"><mxPoint x="1292" y="443"/></Array></mxGeometry></mxCell><mxCell id="11" value="" style="curved=1;startArrow=none;endArrow=classic;exitX=0.007420424800017589;exitY=0.9913330078125;entryX=0.4969350961538462;entryY=0.003185096153846154;rounded=0;endFill=1;fillColor=#dae8fc;strokeColor=#6c8ebf;fontSize=15;" parent="1" source="3" target="5" edge="1"><mxGeometry relative="1" as="geometry"><Array as="points"><mxPoint x="1007" y="558"/></Array></mxGeometry></mxCell><mxCell id="12" value="" style="curved=1;startArrow=none;endArrow=classic;exitX=1.0016738134812324;exitY=0.9913330078125;entryX=1;entryY=0.238;rounded=0;endFill=1;fillColor=#dae8fc;strokeColor=#6c8ebf;fontSize=15;entryDx=0;entryDy=0;entryPerimeter=0;" parent="1" source="3" target="DVtwXkV7z90da2ha-nNt-19" edge="1"><mxGeometry relative="1" as="geometry"><Array as="points"><mxPoint x="1121" y="558"/></Array></mxGeometry></mxCell><mxCell id="27" value="'k'&#10;12.3" style="ellipse;aspect=fixed;strokeWidth=2;whiteSpace=wrap;fillColor=#ffcd28;strokeColor=#d79b00;fontSize=15;gradientColor=#ffa500;" parent="1" vertex="1"><mxGeometry x="922" y="702.37" width="65" height="65" as="geometry"/></mxCell><mxCell id="28" value="" style="curved=1;startArrow=none;endArrow=classic;exitX=0.007420424800017589;exitY=0.9913330078125;entryX=0.4969350961538462;entryY=0.003185096153846154;rounded=0;endFill=1;fillColor=#dae8fc;strokeColor=#6c8ebf;fontSize=15;" parent="1" target="27" edge="1"><mxGeometry relative="1" as="geometry"><Array as="points"><mxPoint x="954" y="677.37"/></Array><mxPoint x="988.3725830020212" y="642.9974169979783" as="sourcePoint"/></mxGeometry></mxCell><mxCell id="29" value="root" style="ellipse;aspect=fixed;strokeWidth=2;whiteSpace=wrap;fillColor=#dae8fc;strokeColor=#6c8ebf;fontSize=15;" vertex="1" parent="1"><mxGeometry x="1522" y="351" width="63" height="63" as="geometry"/></mxCell><mxCell id="30" value="'a'" style="ellipse;aspect=fixed;strokeWidth=2;whiteSpace=wrap;fillColor=#dae8fc;strokeColor=#6c8ebf;fontSize=15;" vertex="1" parent="1"><mxGeometry x="1408" y="465" width="64" height="64" as="geometry"/></mxCell><mxCell id="33" value="'mk'&#10;'abc'" style="ellipse;aspect=fixed;strokeWidth=2;whiteSpace=wrap;fillColor=#f5f5f5;fontSize=15;dashed=1;gradientColor=#b3b3b3;strokeColor=#4D4D4D;" vertex="1" parent="1"><mxGeometry x="1466" y="580" width="63" height="63" as="geometry"/></mxCell><mxCell id="36" value="" style="curved=1;startArrow=none;endArrow=classic;exitX=0.007223462301587302;exitY=0.7530054499151936;entryX=0.504547119140625;entryY=-0.0062255859375;rounded=0;shadow=0;endFill=1;fillColor=#dae8fc;strokeColor=#6c8ebf;fontSize=15;" edge="1" parent="1" source="29" target="30"><mxGeometry relative="1" as="geometry"><Array as="points"><mxPoint x="1440" y="439"/></Array></mxGeometry></mxCell><mxCell id="37" value="" style="curved=1;startArrow=none;endArrow=classic;exitX=1.0126798115079365;exitY=0.753465763586548;rounded=0;endFill=1;fillColor=#dae8fc;strokeColor=#6c8ebf;fontSize=15;" edge="1" parent="1" source="29"><mxGeometry relative="1" as="geometry"><Array as="points"><mxPoint x="1668" y="439"/></Array><mxPoint x="834" y="523" as="targetPoint"/></mxGeometry></mxCell><mxCell id="38" value="" style="curved=1;startArrow=none;endArrow=classic;exitX=0.007420424800017589;exitY=0.9913330078125;rounded=0;endFill=1;fillColor=#dae8fc;strokeColor=#6c8ebf;fontSize=15;" edge="1" parent="1" source="30"><mxGeometry relative="1" as="geometry"><Array as="points"><mxPoint x="1383" y="554"/></Array><mxPoint x="1046" y="610" as="targetPoint"/></mxGeometry></mxCell><mxCell id="39" value="" style="curved=1;startArrow=none;endArrow=classic;exitX=1.0016738134812324;exitY=0.9913330078125;entryX=0.4965277777777778;entryY=-0.002728174603174603;rounded=0;endFill=1;fillColor=#dae8fc;strokeColor=#6c8ebf;fontSize=15;" edge="1" parent="1" source="30" target="33"><mxGeometry relative="1" as="geometry"><Array as="points"><mxPoint x="1497" y="554"/></Array></mxGeometry></mxCell><mxCell id="48" value="" style="endArrow=none;html=1;rounded=0;" edge="1" parent="1"><mxGeometry width="50" height="50" relative="1" as="geometry"><mxPoint x="1481" y="621" as="sourcePoint"/><mxPoint x="1516" y="621" as="targetPoint"/></mxGeometry></mxCell><mxCell id="49" value="" style="shape=umlDestroy;whiteSpace=wrap;html=1;strokeWidth=3;dashed=1;fillStyle=dots;strokeColor=#B20000;fillColor=#e51400;fontColor=#ffffff;" vertex="1" parent="1"><mxGeometry x="1453" y="568" width="88" height="88" as="geometry"/></mxCell></root></mxGraphModel></diagram></mxfile>